<svg version="1.1" id="Layer_1" xmlns="http://www.w3.org/2000/svg" xmlns:xlink="http://www.w3.org/1999/xlink" x="0px" y="0px"
	 width="100%" viewBox="0 0 375 409" enable-background="new 0 0 375 409" xml:space="preserve">
<path fill="#042153" opacity="1.000000" stroke="none" 
	d="
M197.000000,410.000000 
	C131.333344,410.000000 66.166687,410.000000 1.000026,410.000000 
	C1.000017,273.666718 1.000017,137.333405 1.000009,1.000081 
	C125.999939,1.000054 250.999878,1.000054 375.999878,1.000027 
	C375.999908,137.333252 375.999908,273.666504 375.999939,409.999878 
	C316.500000,410.000000 257.000000,410.000000 197.000000,410.000000 
M247.348511,319.937317 
	C218.853928,341.013885 187.211304,356.360413 153.207336,370.793945 
	C164.638184,376.541870 174.614578,381.786926 184.840073,386.490509 
	C186.689926,387.341400 189.863754,386.569458 191.916840,385.535309 
	C224.341415,369.202423 254.870956,349.931274 281.568085,325.169556 
	C306.233521,302.292206 326.661499,276.977203 327.746887,240.894104 
	C328.574310,213.387131 331.858612,185.903793 327.599182,157.107605 
	C326.855164,159.824448 326.255951,161.334839 326.042847,162.897903 
	C324.312378,175.589096 323.119507,188.373566 320.861725,200.968063 
	C317.719330,218.497147 313.813782,235.891541 304.977783,252.002975 
	C303.299896,252.526505 301.098297,252.555969 300.046936,253.670502 
	C297.388641,256.488464 294.537994,256.697845 291.028870,256.010223 
	C283.137695,254.463974 283.287781,254.629776 280.945709,262.543152 
	C280.344604,264.574158 278.279816,266.171997 276.876984,267.121002 
	C281.622742,238.774719 265.641296,223.208710 231.640228,223.409012 
	C240.800461,203.504044 237.609802,185.521851 222.634125,169.288345 
	C231.707123,159.615540 240.441666,150.247375 249.237518,140.937134 
	C272.351044,116.471977 295.523529,92.062325 318.553650,67.519005 
	C320.221436,65.741653 320.930664,63.064857 322.085571,60.806252 
	C319.629913,60.242184 317.176361,59.197502 314.718323,59.186962 
	C283.554230,59.053310 252.389175,59.139812 221.225311,58.982830 
	C215.283691,58.952900 210.928528,61.023628 206.848145,65.400345 
	C184.126953,89.771744 161.162796,113.916641 138.259186,138.117706 
	C137.461746,138.960312 136.426346,139.577728 134.748138,140.889038 
	C134.748138,137.853134 134.745193,135.882675 134.748581,133.912216 
	C134.787216,111.413795 134.838196,88.915375 134.858749,66.416939 
	C134.864380,60.240620 134.238541,59.265240 128.079834,59.229649 
	C102.750580,59.083279 77.419426,59.075420 52.090298,59.231586 
	C45.710812,59.270916 44.985218,60.395786 44.987068,66.687767 
	C45.004860,127.184013 45.105545,187.680435 44.976189,248.176361 
	C44.952293,259.351349 47.985527,269.445831 53.106113,279.195007 
	C64.326958,300.558594 80.804916,317.404266 98.983437,332.750214 
	C106.147217,338.797729 113.780434,344.289124 121.719498,350.436096 
	C122.124359,347.951111 122.359016,346.510864 123.114616,344.760223 
	C122.938759,344.151520 122.762901,343.542786 122.294022,342.044861 
	C122.396736,334.393280 122.499458,326.741669 123.277435,318.542389 
	C123.519104,314.151550 123.941406,309.760010 123.924416,305.370178 
	C123.916214,303.251434 123.081520,301.135834 122.323082,298.194489 
	C122.404831,296.456390 122.486580,294.718262 123.131195,292.710449 
	C122.933434,291.146576 122.735672,289.582733 122.266266,287.129669 
	C122.330330,283.414032 122.394394,279.698425 123.070206,275.707947 
	C122.859673,274.408203 122.649132,273.108429 122.201736,271.018951 
	C122.427933,269.683563 122.654129,268.348175 123.182854,266.830780 
	C123.250679,266.736603 123.396751,266.603302 123.372643,266.555115 
	C123.273338,266.356689 123.122360,266.184113 122.851517,265.184448 
	C127.060646,242.418854 141.847519,230.876434 163.935303,227.239166 
	C149.776108,204.916580 153.301804,183.762192 172.596832,172.935913 
	C190.336884,162.982117 212.534760,169.929840 221.434967,188.391296 
	C225.543121,196.912750 225.686630,205.839493 222.469315,214.648193 
	C217.792130,227.453796 207.770035,234.257935 194.340424,237.923492 
	C210.179779,251.349213 210.971252,269.196381 209.943375,287.781464 
	C216.053970,284.789948 221.223358,282.259247 226.431412,279.709595 
	C213.872986,264.228149 213.306793,250.715302 224.653839,240.265778 
	C234.414017,231.277588 249.896271,231.693665 259.548401,241.203537 
	C270.342773,251.838852 269.117828,264.204651 255.741623,279.632965 
	C268.821259,285.871796 265.822174,287.295380 274.288452,276.355621 
	C273.668793,280.178406 273.400574,284.117737 272.196869,287.746796 
	C271.872223,288.725525 268.719177,288.810120 266.845184,289.216431 
	C265.445374,289.519928 263.757904,289.273834 262.643127,289.977203 
	C258.318512,292.705902 254.199554,295.718658 256.953735,301.919983 
	C257.134552,302.327057 257.102997,303.012177 256.872986,303.384155 
	C256.134552,304.578339 255.256531,305.686218 254.432358,306.827393 
	C253.464935,305.907898 252.045059,305.154083 251.633865,304.030975 
	C250.982513,302.251801 251.271927,300.136993 250.669632,298.328644 
	C250.066147,296.516754 248.857620,294.906403 247.914291,293.207703 
	C246.277222,294.458740 243.558136,295.466888 243.212296,297.007721 
	C242.289841,301.117584 242.538696,305.474243 242.040421,309.699615 
	C241.475830,314.487427 242.174362,318.315399 247.348511,319.937317 
z"/>
<path fill="#FCFCFD" opacity="1.000000" stroke="none" 
	d="
M122.602173,319.090088 
	C122.499458,326.741669 122.396736,334.393280 122.313217,342.838318 
	C122.419487,344.111389 122.506577,344.591003 122.593658,345.070618 
	C122.359016,346.510864 122.124359,347.951111 121.719498,350.436096 
	C113.780434,344.289124 106.147217,338.797729 98.983437,332.750214 
	C80.804916,317.404266 64.326958,300.558594 53.106113,279.195007 
	C47.985527,269.445831 44.952293,259.351349 44.976189,248.176361 
	C45.105545,187.680435 45.004860,127.184013 44.987068,66.687767 
	C44.985218,60.395786 45.710812,59.270916 52.090298,59.231586 
	C77.419426,59.075420 102.750580,59.083279 128.079834,59.229649 
	C134.238541,59.265240 134.864380,60.240620 134.858749,66.416939 
	C134.838196,88.915375 134.787216,111.413795 134.748581,133.912216 
	C134.745193,135.882675 134.748138,137.853134 134.748138,140.889038 
	C136.426346,139.577728 137.461746,138.960312 138.259186,138.117706 
	C161.162796,113.916641 184.126953,89.771744 206.848145,65.400345 
	C210.928528,61.023628 215.283691,58.952900 221.225311,58.982830 
	C252.389175,59.139812 283.554230,59.053310 314.718323,59.186962 
	C317.176361,59.197502 319.629913,60.242184 322.085571,60.806252 
	C320.930664,63.064857 320.221436,65.741653 318.553650,67.519005 
	C295.523529,92.062325 272.351044,116.471977 249.237518,140.937134 
	C240.441666,150.247375 231.707123,159.615540 222.634125,169.288345 
	C237.609802,185.521851 240.800461,203.504044 231.640228,223.409012 
	C265.641296,223.208710 281.622742,238.774719 276.648651,267.806641 
	C275.510071,270.947632 274.599823,273.402985 273.689575,275.858307 
	C265.822174,287.295380 268.821259,285.871796 255.741623,279.632965 
	C269.117828,264.204651 270.342773,251.838852 259.548401,241.203537 
	C249.896271,231.693665 234.414017,231.277588 224.653839,240.265778 
	C213.306793,250.715302 213.872986,264.228149 226.431412,279.709595 
	C221.223358,282.259247 216.053970,284.789948 209.943375,287.781464 
	C210.971252,269.196381 210.179779,251.349213 194.340424,237.923492 
	C207.770035,234.257935 217.792130,227.453796 222.469315,214.648193 
	C225.686630,205.839493 225.543121,196.912750 221.434967,188.391296 
	C212.534760,169.929840 190.336884,162.982117 172.596832,172.935913 
	C153.301804,183.762192 149.776108,204.916580 163.935303,227.239166 
	C141.847519,230.876434 127.060646,242.418854 122.798164,265.835541 
	C122.789993,266.662048 122.835167,266.837433 122.880325,267.012787 
	C122.654129,268.348175 122.427933,269.683563 122.206665,271.748718 
	C122.293877,273.646606 122.376167,274.814697 122.458458,275.982788 
	C122.394394,279.698425 122.330330,283.414032 122.276405,287.975342 
	C122.380478,290.207397 122.474403,291.593781 122.568329,292.980164 
	C122.486580,294.718262 122.404831,296.456390 122.330673,299.052521 
	C122.426239,306.303741 122.514206,312.696899 122.602173,319.090088 
z"/>
<path fill="#F9F9FB" opacity="1.000000" stroke="none" 
	d="
M305.742737,252.002365 
	C313.813782,235.891541 317.719330,218.497147 320.861725,200.968063 
	C323.119507,188.373566 324.312378,175.589096 326.042847,162.897903 
	C326.255951,161.334839 326.855164,159.824448 327.599182,157.107605 
	C331.858612,185.903793 328.574310,213.387131 327.746887,240.894104 
	C326.661499,276.977203 306.233521,302.292206 281.568085,325.169556 
	C254.870956,349.931274 224.341415,369.202423 191.916840,385.535309 
	C189.863754,386.569458 186.689926,387.341400 184.840073,386.490509 
	C174.614578,381.786926 164.638184,376.541870 153.207336,370.793945 
	C187.211304,356.360413 218.853928,341.013885 247.859131,319.556946 
	C258.361084,310.294220 268.422607,301.489258 278.325989,292.509857 
	C290.742249,281.252014 298.505707,266.793182 305.742737,252.002365 
z"/>
<path fill="#041F50" opacity="1.000000" stroke="none" 
	d="
M305.360260,252.002670 
	C298.505707,266.793182 290.742249,281.252014 278.325989,292.509857 
	C268.422607,301.489258 258.361084,310.294220 248.066635,319.267487 
	C242.174362,318.315399 241.475830,314.487427 242.040421,309.699615 
	C242.538696,305.474243 242.289841,301.117584 243.212296,297.007721 
	C243.558136,295.466888 246.277222,294.458740 247.914291,293.207703 
	C248.857620,294.906403 250.066147,296.516754 250.669632,298.328644 
	C251.271927,300.136993 250.982513,302.251801 251.633865,304.030975 
	C252.045059,305.154083 253.464935,305.907898 254.432358,306.827393 
	C255.256531,305.686218 256.134552,304.578339 256.872986,303.384155 
	C257.102997,303.012177 257.134552,302.327057 256.953735,301.919983 
	C254.199554,295.718658 258.318512,292.705902 262.643127,289.977203 
	C263.757904,289.273834 265.445374,289.519928 266.845184,289.216431 
	C268.719177,288.810120 271.872223,288.725525 272.196869,287.746796 
	C273.400574,284.117737 273.668793,280.178406 273.989014,276.106964 
	C274.599823,273.402985 275.510071,270.947632 276.653870,268.230591 
	C278.279816,266.171997 280.344604,264.574158 280.945709,262.543152 
	C283.287781,254.629776 283.137695,254.463974 291.028870,256.010223 
	C294.537994,256.697845 297.388641,256.488464 300.046936,253.670502 
	C301.098297,252.555969 303.299896,252.526505 305.360260,252.002670 
z"/>
<path fill="#011848" opacity="1.000000" stroke="none" 
	d="
M122.939804,318.816223 
	C122.514206,312.696899 122.426239,306.303741 122.479660,299.464691 
	C123.081520,301.135834 123.916214,303.251434 123.924416,305.370178 
	C123.941406,309.760010 123.519104,314.151550 122.939804,318.816223 
z"/>
<path fill="#011848" opacity="1.000000" stroke="none" 
	d="
M122.849762,292.845306 
	C122.474403,291.593781 122.380478,290.207397 122.412231,288.419922 
	C122.735672,289.582733 122.933434,291.146576 122.849762,292.845306 
z"/>
<path fill="#011848" opacity="1.000000" stroke="none" 
	d="
M122.764328,275.845367 
	C122.376167,274.814697 122.293877,273.646606 122.325089,272.143616 
	C122.649132,273.108429 122.859673,274.408203 122.764328,275.845367 
z"/>
<path fill="#011848" opacity="1.000000" stroke="none" 
	d="
M122.854141,344.915405 
	C122.506577,344.591003 122.419487,344.111389 122.459724,343.282928 
	C122.762901,343.542786 122.938759,344.151520 122.854141,344.915405 
z"/>
<path fill="#011848" opacity="1.000000" stroke="none" 
	d="
M123.031593,266.921783 
	C122.835167,266.837433 122.789993,266.662048 122.867592,266.244324 
	C123.122360,266.184113 123.273338,266.356689 123.372643,266.555115 
	C123.396751,266.603302 123.250679,266.736603 123.031593,266.921783 
z"/>
</svg>