<svg version="1.1" id="Layer_1" xmlns="http://www.w3.org/2000/svg" xmlns:xlink="http://www.w3.org/1999/xlink" x="0px" y="0px"
	 width="100%" viewBox="0 0 880 1024" enable-background="new 0 0 880 1024" xml:space="preserve">
<path fill="#000000" opacity="1.000000" stroke="none" 
	d="
M409.468658,1025.000000 
	C403.274628,1023.326538 397.525604,1021.729492 391.827759,1019.967041 
	C359.438995,1009.948242 330.666565,993.021118 303.425385,973.288452 
	C242.091583,928.860291 187.523117,877.209473 139.855377,818.389465 
	C107.230888,778.132202 81.515961,733.738037 62.121784,685.622253 
	C44.332062,641.487061 30.824558,596.117920 21.314129,549.531189 
	C14.423847,515.779175 9.196849,481.750946 5.915277,447.471313 
	C1.848483,404.989166 1.046431,362.358643 1.962144,319.712524 
	C2.583804,290.760895 4.462741,261.859528 6.808297,232.996704 
	C7.629539,222.891052 8.728668,212.804276 9.897400,202.731689 
	C10.963789,193.541122 15.937696,188.286774 24.514053,186.838913 
	C71.192543,178.958771 116.893791,167.244797 161.781647,152.223099 
	C216.710205,133.841278 269.667877,110.927177 320.697906,83.563133 
	C361.298065,61.791962 399.994873,37.064854 436.207611,8.519191 
	C444.126648,2.276780 450.355286,2.145499 458.392151,8.610202 
	C485.195709,30.170527 513.775818,49.092125 543.352173,66.576454 
	C573.211853,84.228241 604.072266,99.927399 635.766663,113.992004 
	C669.722290,129.059998 704.085510,143.100906 739.503296,154.416595 
	C782.353821,168.106995 825.884705,179.058411 870.222473,186.750610 
	C874.035217,187.412064 877.613464,188.760147 880.718994,191.799118 
	C881.000000,296.687561 881.000000,401.375122 880.834290,506.869812 
	C879.696838,513.239319 878.731140,518.802795 877.752258,524.363953 
	C869.863098,569.184387 858.816772,613.182739 843.704468,656.143738 
	C830.280457,694.305298 813.464600,730.860657 791.948059,765.145264 
	C762.196167,812.552246 725.784729,854.471924 685.686401,893.340698 
	C653.931213,924.122070 620.661072,953.069946 584.217712,978.227600 
	C560.831055,994.371948 536.328308,1008.449036 509.273560,1017.597961 
	C501.263916,1020.306458 493.095612,1022.545715 485.000000,1025.000000 
	C459.979095,1025.000000 434.958221,1025.000000 409.468658,1025.000000 
M363.079468,910.327820 
	C386.495453,919.505554 410.670990,925.258728 435.839020,926.704468 
	C442.263733,927.073547 446.064789,930.941956 446.253998,936.625366 
	C446.446228,942.399292 442.520325,946.557007 436.072815,947.381042 
	C422.841431,949.071960 409.841919,946.943665 396.910095,944.668762 
	C376.805786,941.132019 357.932770,933.413940 338.698120,926.942749 
	C335.433044,925.844299 332.169464,924.652649 328.083832,925.675720 
	C331.155731,929.094788 334.596008,931.374084 338.064880,933.521179 
	C365.154297,950.288147 394.511444,960.202759 426.343262,962.696289 
	C433.371429,963.246765 436.996948,966.935669 437.078156,972.857849 
	C437.161530,978.937622 432.693756,983.853149 426.075378,984.184875 
	C420.603973,984.459106 415.059662,984.363037 409.610870,983.809326 
	C390.256042,981.842468 371.875885,975.942322 353.672241,969.420593 
	C351.309845,968.574158 348.964630,967.641907 346.107208,967.668518 
	C347.086884,969.516113 348.522980,970.073669 349.788727,970.808899 
	C360.890564,977.257080 372.242340,983.173645 384.177185,987.992554 
	C404.128937,996.048340 424.735870,1001.192078 446.280975,1001.541199 
	C470.707550,1001.936890 493.705231,995.405884 515.764038,985.426147 
	C550.984863,969.491638 581.838257,946.793945 611.635986,922.585632 
	C650.920959,890.669739 686.965454,855.450134 719.622131,816.713867 
	C744.641235,787.037109 766.649963,755.383545 784.780945,721.080688 
	C811.419495,670.681946 829.135864,617.057922 841.658813,561.618591 
	C847.777344,534.531860 852.582703,507.207977 855.912048,479.620148 
	C858.384155,459.135986 860.618225,438.635010 861.857727,418.039703 
	C862.717896,403.746857 863.125977,389.425720 864.071655,375.139404 
	C865.836670,348.477112 864.387878,321.835541 863.361084,295.224030 
	C862.411621,270.616333 860.321777,246.047409 857.852722,221.524963 
	C856.997559,213.031052 857.286682,213.012680 848.628601,211.226273 
	C822.230713,205.779617 795.938721,199.829559 769.972351,192.616104 
	C711.906494,176.485428 655.921936,154.715576 601.467773,129.017502 
	C548.898315,104.208870 498.636017,75.463890 452.757660,39.528648 
	C448.667542,36.324966 445.984344,36.331333 442.003693,39.417633 
	C415.359772,60.075508 387.083923,78.314720 357.864532,95.077881 
	C300.036469,128.253845 239.274399,154.929962 176.260422,176.571518 
	C146.171616,186.905243 115.618378,195.616791 84.639816,202.841125 
	C71.030182,206.014938 57.423630,209.216110 43.630619,211.520447 
	C39.573929,212.198181 37.199257,213.740402 37.086243,218.570511 
	C36.911594,226.034775 35.936676,233.488205 35.136986,240.928589 
	C32.128422,268.920380 31.025597,297.024933 30.319975,325.140900 
	C29.353920,363.633789 30.771584,402.050171 34.111664,440.424225 
	C36.318985,465.784058 39.333004,491.035858 43.594238,516.101624 
	C51.414715,562.103943 63.179813,607.088257 78.924866,651.077881 
	C102.179588,716.048584 136.435638,774.365356 182.380508,825.859985 
	C213.283417,860.495544 246.733902,892.474976 282.287048,922.273682 
	C289.742096,928.522034 297.206696,934.803467 305.796082,940.574341 
	C304.810150,935.965332 303.863464,932.105164 303.170135,928.200012 
	C300.237335,911.681458 312.140289,899.123047 328.952576,900.291809 
	C340.883850,901.121277 351.457275,905.995789 363.079468,910.327820 
z"/>
<path fill="#000000" opacity="1.000000" stroke="none" 
	d="
M123.300270,631.574219 
	C106.985695,588.020508 96.685585,543.371094 89.569237,497.878052 
	C83.338486,458.046417 79.583038,418.058014 78.393112,377.732330 
	C77.551414,349.207977 78.678696,320.791840 79.846031,292.344635 
	C80.214111,283.374603 81.037819,274.421082 81.756256,265.468292 
	C82.360985,257.932404 86.937210,253.398422 96.139587,251.041458 
	C104.198547,248.977371 112.285324,247.020020 120.329697,244.901184 
	C160.952133,234.201553 200.602173,220.596359 239.676056,205.212234 
	C274.571075,191.473419 308.872040,176.429810 342.235809,159.302094 
	C374.438446,142.770477 405.681763,124.650864 434.458496,102.534119 
	C445.141632,94.323448 450.049438,94.680313 460.540680,102.848862 
	C486.925568,123.392235 515.670837,140.202606 545.314758,155.524429 
	C594.522156,180.957886 645.510620,202.219040 697.720215,220.648056 
	C731.023499,232.403488 764.797729,242.536850 799.061279,251.075928 
	C808.512634,253.431366 812.529480,258.227814 813.163208,267.968842 
	C815.607727,305.542816 817.215210,343.154266 816.038269,380.807709 
	C814.230896,438.631958 807.424438,495.857330 794.594788,552.323669 
	C782.351929,606.207336 764.070435,657.831848 736.687622,705.969543 
	C709.926758,753.013672 676.134399,794.368530 635.159180,829.813660 
	C618.452454,844.265625 600.865295,857.416809 580.490784,866.267822 
	C554.598206,877.515808 527.606506,879.994934 499.800232,875.753357 
	C478.861206,872.559387 458.720886,865.910400 437.978790,861.896179 
	C434.373566,861.198425 430.835266,860.999939 427.326324,861.696411 
	C426.766052,864.512146 428.541534,865.782349 429.839569,867.186890 
	C436.407196,874.293213 444.584412,879.054626 453.259216,883.073486 
	C458.545502,885.522461 463.995819,887.646667 468.897369,890.865051 
	C473.855560,894.120728 476.193146,899.239136 474.929901,904.012573 
	C473.494904,909.435120 470.089172,912.310669 463.414520,912.403931 
	C446.193176,912.644592 429.269684,909.940125 412.500336,906.300781 
	C360.897614,895.101746 313.963196,873.798523 272.573944,840.832886 
	C231.668472,808.252563 197.640762,769.495972 169.501801,725.440796 
	C150.669601,695.956543 135.662186,664.649597 123.300270,631.574219 
M219.813873,415.324066 
	C187.534515,443.448395 155.308640,471.634674 122.898064,499.606995 
	C119.424332,502.605042 118.816849,505.616089 119.581383,509.662506 
	C124.149689,533.840820 129.160309,557.894470 136.073608,581.555420 
	C151.560837,634.560913 173.620300,684.412903 205.831207,729.498291 
	C211.109238,736.885864 216.435684,744.254578 222.909561,751.622559 
	C223.309769,750.207642 223.564636,749.624573 223.632629,749.020447 
	C226.818024,720.722107 238.031479,695.910339 256.111877,674.064087 
	C270.602936,656.554810 288.339874,643.338440 308.930359,633.820801 
	C314.926758,631.049072 314.968872,630.099365 310.182617,625.621704 
	C294.291779,610.755432 283.645813,592.798340 278.898987,571.536438 
	C270.686615,534.751892 277.743256,501.310913 302.368011,472.456268 
	C336.594940,432.349945 397.386017,430.586914 434.087524,468.377411 
	C456.422760,491.375305 464.977997,519.497742 463.414154,551.017029 
	C461.949310,580.541199 451.250671,605.984131 429.346375,626.333130 
	C425.710846,629.710510 425.906372,630.812256 430.642120,633.023132 
	C440.335632,637.548462 449.503204,642.947266 458.293335,649.019043 
	C459.222992,649.661133 460.133453,650.523315 461.518494,650.000488 
	C462.861389,648.877625 463.080048,647.131165 463.497650,645.575806 
	C466.178101,635.591797 471.212738,626.849060 477.332581,618.633667 
	C503.035828,584.129456 549.122925,579.825073 579.442261,604.823303 
	C616.854858,635.669922 619.652222,691.286194 586.256836,726.564331 
	C585.252502,727.625244 583.891174,728.467712 583.629333,730.947937 
	C607.644348,744.562073 624.625549,764.787781 634.244080,791.356140 
	C635.322571,790.708191 635.966309,790.477417 636.398315,790.038269 
	C641.771545,784.574951 647.281311,779.233643 652.437500,773.571045 
	C689.499207,732.869629 717.985229,686.748596 739.039795,635.967896 
	C756.400635,594.095947 767.279236,550.405945 775.443726,505.953461 
	C775.923096,503.343201 774.617859,501.975525 772.908142,500.480835 
	C732.519775,465.172729 692.197083,429.789246 651.733826,394.567291 
	C646.647949,390.140289 644.547241,385.131531 644.588989,378.436920 
	C644.786560,346.776978 644.582458,315.114532 644.778015,283.454559 
	C644.808289,278.564728 643.217773,277.124115 638.483276,277.255615 
	C628.159790,277.542297 617.814270,277.588501 607.494751,277.235596 
	C602.266296,277.056793 600.984497,279.059357 601.077942,283.939606 
	C601.342529,297.765350 601.242432,311.600189 601.131592,325.430206 
	C601.066467,333.549438 596.983582,338.174774 589.319336,338.898193 
	C584.511108,339.352020 580.592102,336.989136 577.147034,333.984558 
	C550.908081,311.100372 524.690552,288.191467 498.518982,265.230316 
	C482.615479,251.277710 466.739990,237.291336 451.010468,223.143860 
	C447.979889,220.418091 445.899567,220.493500 443.077850,223.217743 
	C439.729523,226.450333 435.991364,229.276062 432.467010,232.329895 
	C399.737091,260.690369 367.099823,289.158417 334.271942,317.404999 
	C296.391083,349.999359 258.344543,382.401215 219.813873,415.324066 
M722.730408,417.755646 
	C741.703247,434.412262 760.676086,451.068878 779.534485,467.625061 
	C781.712585,466.217621 781.575378,464.638580 781.791443,463.193390 
	C786.228516,433.519226 787.593262,403.597870 788.609375,373.674469 
	C789.418030,349.861115 788.691833,326.034485 787.624817,302.231415 
	C787.304382,295.082886 786.561951,287.953491 786.229431,280.805267 
	C786.077698,277.542145 784.422729,276.216461 781.494507,275.428101 
	C771.855347,272.833130 762.260010,270.074219 752.657288,267.345001 
	C702.944336,253.216095 654.481812,235.517227 606.944336,215.352188 
	C552.242371,192.148041 499.341522,165.494171 450.969299,130.590668 
	C448.291626,128.658554 446.257477,128.440643 443.462402,130.516922 
	C422.019897,146.445190 399.024139,159.937317 375.730011,172.898590 
	C344.998413,189.998184 313.162720,204.814743 280.766724,218.505203 
	C246.693649,232.904404 211.959335,245.477631 176.902725,257.185211 
	C155.908356,264.196503 134.586136,270.153229 113.145615,275.661957 
	C110.431641,276.359253 108.342789,277.075500 108.217743,280.714722 
	C107.754814,294.187683 106.642609,307.641541 106.322212,321.115601 
	C105.343773,362.262726 105.961876,403.377991 110.423912,444.341461 
	C111.256920,451.988708 111.581718,459.797333 114.075897,467.243622 
	C116.533379,466.750824 117.864761,465.161560 119.347069,463.882904 
	C139.402130,446.583038 159.452423,429.277466 179.454651,411.916534 
	C213.422714,382.433929 247.284393,352.828308 281.324371,323.429077 
	C313.598755,295.554749 346.016083,267.845581 378.425903,240.128510 
	C397.543610,223.778870 416.707367,207.481659 435.973663,191.307709 
	C444.699585,183.982330 450.147461,184.171799 459.012115,191.397385 
	C459.916107,192.134262 460.829071,192.861710 461.705780,193.630203 
	C496.653900,224.263916 531.594116,254.906677 566.558289,285.522186 
	C567.994934,286.780090 569.073486,288.703918 571.424561,288.674591 
	C572.788635,286.529388 572.567200,284.166077 572.578918,281.861603 
	C572.610168,275.696289 572.474854,269.527649 572.631348,263.366058 
	C572.839783,255.158966 578.926331,249.334290 587.144104,249.404617 
	C609.634460,249.597092 632.119934,249.799545 654.611877,249.162766 
	C667.378113,248.801331 673.252075,255.101990 673.224731,267.755005 
	C673.152100,301.415344 673.232361,335.076080 673.109436,368.736115 
	C673.094116,372.936340 674.474426,375.863220 677.683350,378.605774 
	C692.627136,391.377747 707.382446,404.370300 722.730408,417.755646 
M430.815033,811.635864 
	C431.056366,810.667053 431.346222,809.707458 431.531891,808.728088 
	C436.042267,784.937195 446.751312,764.492615 464.411407,747.801636 
	C470.006439,742.513733 476.159454,737.972107 482.852173,734.167297 
	C486.546509,732.067139 486.580566,729.801758 483.878082,726.564941 
	C481.372375,723.563904 479.157623,723.743652 476.207275,725.586365 
	C441.846497,747.046448 423.849457,778.584717 419.459290,818.295410 
	C418.940125,822.991699 417.719788,825.092834 413.018372,826.491028 
	C399.884125,830.397278 392.205353,839.645996 389.476288,853.044434 
	C389.023499,855.267578 389.854889,857.741150 387.702972,860.418518 
	C334.487701,842.310364 289.773499,811.156738 251.402328,769.841797 
	C250.469971,776.706543 249.092682,783.036743 254.881989,788.203125 
	C260.470642,793.190430 265.679016,798.601257 271.192139,803.676392 
	C308.639252,838.148621 352.071930,861.937622 400.844666,876.163513 
	C402.429657,876.625854 404.016052,877.215515 405.673309,876.344849 
	C406.175201,874.373413 404.642883,873.256897 403.822083,871.906189 
	C396.041260,859.102661 399.468353,846.078979 412.458527,838.722961 
	C422.477417,833.049500 433.035431,834.235962 443.619019,836.080566 
	C456.908447,838.396729 469.878296,842.134705 482.989319,845.245789 
	C503.039124,850.003357 523.206482,852.826416 543.813538,849.138062 
	C566.827759,845.019043 585.885437,833.026733 603.981934,819.099487 
	C610.069885,814.414062 610.535095,811.412476 606.447815,804.225952 
	C606.005066,804.352417 605.466064,804.375854 605.092529,804.636353 
	C603.727600,805.588440 602.378601,806.571899 601.093445,807.628418 
	C589.461182,817.192444 577.050110,825.539551 563.220093,831.612549 
	C549.295593,837.727051 534.662537,840.775879 519.494141,840.048706 
	C507.699646,839.483398 496.070129,837.224915 484.580078,834.430298 
	C469.722504,830.816650 455.023468,826.508118 439.819366,824.429565 
	C429.147278,822.970581 429.154144,822.920471 430.815033,811.635864 
z"/>
</svg>